<mxfile host="app.diagrams.net" agent="Mozilla/5.0 (Windows NT 10.0; Win64; x64) AppleWebKit/537.36 (KHTML, like Gecko) Chrome/131.0.0.0 Safari/537.36 Edg/131.0.0.0" version="26.0.4">
  <diagram name="第 1 页" id="UkHKsyRzo_8BAErzM3me">
    <mxGraphModel dx="662" dy="459" grid="1" gridSize="10" guides="1" tooltips="1" connect="1" arrows="1" fold="1" page="1" pageScale="1" pageWidth="827" pageHeight="1169" math="0" shadow="0">
      <root>
        <mxCell id="0" />
        <mxCell id="1" parent="0" />
        <mxCell id="b3X3QVxHOWlnYHY37T2e-1" value="" style="rounded=1;whiteSpace=wrap;html=1;sketch=1;curveFitting=1;jiggle=2;fillColor=#f5f5f5;strokeColor=#666666;fontColor=#333333;" vertex="1" parent="1">
          <mxGeometry x="211" y="210" width="406" height="137.5" as="geometry" />
        </mxCell>
        <mxCell id="b3X3QVxHOWlnYHY37T2e-4" value="&lt;font face=&quot;Comic Sans MS&quot; style=&quot;font-size: 14px;&quot;&gt;Neural Network&amp;nbsp;&lt;/font&gt;&lt;div&gt;&lt;font face=&quot;Comic Sans MS&quot; style=&quot;font-size: 14px;&quot;&gt;Model&lt;/font&gt;&lt;/div&gt;" style="shape=cube;whiteSpace=wrap;html=1;boundedLbl=1;backgroundOutline=1;darkOpacity=0.05;darkOpacity2=0.1;sketch=1;curveFitting=1;jiggle=2;fillColor=#dae8fc;strokeColor=#6c8ebf;" vertex="1" parent="1">
          <mxGeometry x="410" y="230" width="124" height="80" as="geometry" />
        </mxCell>
        <mxCell id="b3X3QVxHOWlnYHY37T2e-5" value="&lt;font face=&quot;Comic Sans MS&quot; style=&quot;font-size: 18px;&quot;&gt;s&lt;sub style=&quot;&quot;&gt;i&lt;/sub&gt;&lt;/font&gt;" style="text;html=1;align=center;verticalAlign=middle;whiteSpace=wrap;rounded=0;" vertex="1" parent="1">
          <mxGeometry x="310" y="255" width="60" height="30" as="geometry" />
        </mxCell>
        <mxCell id="b3X3QVxHOWlnYHY37T2e-6" value="&lt;div style=&quot;&quot;&gt;&lt;span style=&quot;background-color: transparent; color: light-dark(rgb(0, 0, 0), rgb(255, 255, 255));&quot;&gt;&lt;font face=&quot;Comic Sans MS&quot; style=&quot;font-size: 18px;&quot;&gt;a&lt;sub style=&quot;&quot;&gt;i&lt;/sub&gt;&lt;/font&gt;&lt;/span&gt;&lt;/div&gt;" style="text;html=1;align=center;verticalAlign=middle;whiteSpace=wrap;rounded=0;" vertex="1" parent="1">
          <mxGeometry x="570" y="255" width="60" height="30" as="geometry" />
        </mxCell>
        <mxCell id="b3X3QVxHOWlnYHY37T2e-8" value="" style="shape=singleArrow;whiteSpace=wrap;html=1;arrowWidth=0.2895348837209298;arrowSize=0.4302325581395337;sketch=1;curveFitting=1;jiggle=2;fillColor=#f8cecc;strokeColor=#b85450;" vertex="1" parent="1">
          <mxGeometry x="360" y="255" width="40" height="30" as="geometry" />
        </mxCell>
        <mxCell id="b3X3QVxHOWlnYHY37T2e-9" value="" style="shape=singleArrow;whiteSpace=wrap;html=1;arrowWidth=0.2895348837209298;arrowSize=0.4302325581395337;sketch=1;curveFitting=1;jiggle=2;fillColor=#f8cecc;strokeColor=#b85450;" vertex="1" parent="1">
          <mxGeometry x="540" y="255" width="40" height="30" as="geometry" />
        </mxCell>
        <mxCell id="b3X3QVxHOWlnYHY37T2e-10" value="&lt;div&gt;&lt;font style=&quot;font-size: 14px;&quot; face=&quot;Comic Sans MS&quot;&gt;&lt;span style=&quot;background-color: transparent; color: light-dark(rgb(0, 0, 0), rgb(255, 255, 255));&quot;&gt;(s&lt;/span&gt;&lt;sub style=&quot;background-color: transparent; color: light-dark(rgb(0, 0, 0), rgb(255, 255, 255));&quot;&gt;1&lt;/sub&gt;&lt;span style=&quot;background-color: transparent; color: light-dark(rgb(0, 0, 0), rgb(255, 255, 255));&quot;&gt;, a&lt;/span&gt;&lt;sub style=&quot;background-color: transparent; color: light-dark(rgb(0, 0, 0), rgb(255, 255, 255));&quot;&gt;1&lt;/sub&gt;&lt;span style=&quot;background-color: transparent; color: light-dark(rgb(0, 0, 0), rgb(255, 255, 255));&quot;&gt;)&lt;/span&gt;&lt;/font&gt;&lt;/div&gt;&lt;div&gt;&lt;font style=&quot;font-size: 14px;&quot; face=&quot;Comic Sans MS&quot;&gt;(s&lt;sub&gt;2&lt;/sub&gt;, a&lt;sub style=&quot;&quot;&gt;2&lt;/sub&gt;)&lt;/font&gt;&lt;/div&gt;&lt;div&gt;&lt;font style=&quot;font-size: 14px;&quot; face=&quot;Comic Sans MS&quot;&gt;...&lt;/font&gt;&lt;/div&gt;&lt;div&gt;&lt;font style=&quot;font-size: 14px;&quot; face=&quot;Comic Sans MS&quot;&gt;(s&lt;sub style=&quot;&quot;&gt;n&lt;/sub&gt;, a&lt;sub style=&quot;&quot;&gt;n&lt;/sub&gt;)&lt;/font&gt;&lt;span style=&quot;font-family: &amp;quot;Comic Sans MS&amp;quot;;&quot;&gt;&lt;/span&gt;&lt;/div&gt;" style="shape=note;whiteSpace=wrap;html=1;backgroundOutline=1;darkOpacity=0.05;sketch=1;curveFitting=1;jiggle=2;fillColor=#d5e8d4;strokeColor=#82b366;size=18;" vertex="1" parent="1">
          <mxGeometry x="237.5" y="225" width="80" height="90" as="geometry" />
        </mxCell>
        <mxCell id="b3X3QVxHOWlnYHY37T2e-11" value="&lt;font face=&quot;Comic Sans MS&quot;&gt;Training Data&lt;/font&gt;" style="text;html=1;align=center;verticalAlign=middle;whiteSpace=wrap;rounded=0;" vertex="1" parent="1">
          <mxGeometry x="227.5" y="310" width="90" height="30" as="geometry" />
        </mxCell>
        <mxCell id="b3X3QVxHOWlnYHY37T2e-12" value="&lt;font face=&quot;Comic Sans MS&quot;&gt;Embodied Intelligence&lt;/font&gt;" style="text;html=1;align=center;verticalAlign=middle;whiteSpace=wrap;rounded=0;" vertex="1" parent="1">
          <mxGeometry x="414" y="310" width="133" height="30" as="geometry" />
        </mxCell>
      </root>
    </mxGraphModel>
  </diagram>
</mxfile>
